# xmcd CD Database Entry
#
# Track frame offsets:
# 150
# 36285
# 58676
#
# Disc length: 1833 seconds
#
# Revision: 1
# Processed by: cddbd v1.4PL0 Copyright (c) Steve Scherf et al.
# Submitted via: tcd 2.0b
#
DISCID=22072703
DTITLE=Desconocido - Desconocido
DYEAR=1900
DGENRE=
TTITLE0=Pista 1
TTITLE1=Pista 2
TTITLE2=Pista 3
EXTD=
EXTT0=
EXTT1=
EXTT2=
PLAYORDER=
